<svg xmlns="http://www.w3.org/2000/svg" version="1.1" xmlns:xlink="http://www.w3.org/1999/xlink" xmlns:svgjs="http://svgjs.dev/svgjs" width="1000" height="999" viewBox="0 0 1000 999"><g transform="matrix(1,0,0,1,-0.215743440233382,-0.21552769679306039)"><svg viewBox="0 0 343 343" data-background-color="#ffffff" preserveAspectRatio="xMidYMid meet" height="999" width="1000" xmlns="http://www.w3.org/2000/svg" xmlns:xlink="http://www.w3.org/1999/xlink"><g id="tight-bounds" transform="matrix(1,0,0,1,0.0740000000000407,0.07400000000001228)"><svg viewBox="0 0 342.85155851775386 342.85155851775386" height="342.85155851775386" width="342.85155851775386"><g><svg></svg></g><g><svg viewBox="0 0 342.85155851775386 342.85155851775386" height="342.85155851775386" width="342.85155851775386"><g><path d="M0 171.426c0-94.676 76.75-171.426 171.426-171.426 94.676 0 171.426 76.75 171.426 171.426 0 94.676-76.75 171.426-171.426 171.426-94.676 0-171.426-76.75-171.426-171.426zM171.426 330.565c87.89 0 159.139-71.249 159.139-159.139 0-87.89-71.249-159.139-159.139-159.139-87.89 0-159.139 71.249-159.139 159.139 0 87.89 71.249 159.139 159.139 159.139z" data-fill-palette-color="tertiary" fill="#e83d95" stroke="transparent"></path><ellipse rx="164.56874808852186" ry="164.56874808852186" cx="171.42577925887693" cy="171.42577925887693" fill="#e83d95" stroke="transparent" stroke-width="0" fill-opacity="1" data-fill-palette-color="tertiary"></ellipse></g><g transform="matrix(1,0,0,1,64.84655864529837,103.3020043808715)"><svg viewBox="0 0 213.1584412271571 136.24754975601087" height="136.24754975601087" width="213.1584412271571"><g><svg viewBox="0 0 213.1584412271571 136.24754975601087" height="136.24754975601087" width="213.1584412271571"><g><svg viewBox="0 0 213.1584412271571 136.24754975601087" height="136.24754975601087" width="213.1584412271571"><g><svg viewBox="0 0 213.1584412271571 136.24754975601087" height="136.24754975601087" width="213.1584412271571"><g id="textblocktransform"><svg viewBox="0 0 213.1584412271571 136.24754975601087" height="136.24754975601087" width="213.1584412271571" id="textblock"><g><svg viewBox="0 0 213.1584412271571 136.24754975601087" height="136.24754975601087" width="213.1584412271571"><g transform="matrix(1,0,0,1,0,0)"><svg width="213.1584412271571" viewBox="3.9000000953674316 -35.5 56.39999771118164 36.04999923706055" height="136.24754975601087" data-palette-color="#ffffff"><path d="M27.9 0L27.9-26.75 18.8 0 15.75 0 6.7-26.75 6.7 0 3.9 0 3.9-35 6.7-35 17.25-4.3 27.9-35 30.7-35 30.7 0 27.9 0ZM39.4-8.9Q39.55-7.2 40.67-5.65 41.8-4.1 43.77-3.13 45.75-2.15 48.3-2.15L48.3-2.15Q52.15-2.15 54.72-3.88 57.3-5.6 57.3-9.35L57.3-9.35Q57.3-11.55 56.05-13.03 54.8-14.5 52.95-15.38 51.1-16.25 47.9-17.4L47.9-17.4Q44.45-18.6 42.37-19.63 40.3-20.65 38.87-22.4 37.45-24.15 37.45-26.9L37.45-26.9Q37.45-29.1 38.7-31.08 39.95-33.05 42.47-34.27 45-35.5 48.7-35.5L48.7-35.5Q51.15-35.5 52.75-35.15 54.35-34.8 56-34L56-34 55.15-31.35Q52.3-32.8 48.8-32.8L48.8-32.8Q44.95-32.8 42.65-31.2 40.35-29.6 40.35-26.75L40.35-26.75Q40.35-24.95 41.5-23.73 42.65-22.5 44.32-21.75 46-21 49-19.95L49-19.95Q52.65-18.7 54.9-17.63 57.15-16.55 58.72-14.58 60.3-12.6 60.3-9.6L60.3-9.6Q60.3-5 57.37-2.23 54.45 0.55 48.35 0.55L48.35 0.55Q44.65 0.55 42.02-0.83 39.4-2.2 38.02-4.38 36.65-6.55 36.55-8.9L36.55-8.9 39.4-8.9Z" opacity="1" transform="matrix(1,0,0,1,0,0)" fill="#ffffff" class="wordmark-text-0" data-fill-palette-color="quaternary" id="text-0"></path></svg></g></svg></g></svg></g></svg></g><g></g></svg></g></svg></g></svg></g></svg></g><defs></defs></svg><rect width="342.85155851775386" height="342.85155851775386" fill="none" stroke="none" visibility="hidden"></rect></g></svg></g></svg>